{
  "accessors": [
    {
      "bufferView": 2,
      "componentType": 5126,
      "count": 20391,
      "max": [0.25661322474479675, 0.74204862117767334, 0.34723177552223206],
      "min": [
        -0.25661331415176392, 0.0034210269805043936, -0.12838034331798553
      ],
      "type": "VEC3"
    },
    {
      "bufferView": 2,
      "byteOffset": 244692,
      "componentType": 5126,
      "count": 20391,
      "max": [0.9999995231628418, 1, 0.9999997615814209],
      "min": [-0.9999995231628418, -1, -1],
      "type": "VEC3"
    },
    {
      "bufferView": 1,
      "componentType": 5126,
      "count": 20391,
      "max": [0.97803759574890137, 0.95591306686401367],
      "min": [0.00473004300147295, 0.15881983935832977],
      "type": "VEC2"
    },
    {
      "bufferView": 0,
      "componentType": 5125,
      "count": 95616,
      "max": [20390],
      "min": [0],
      "type": "SCALAR"
    },
    {
      "bufferView": 2,
      "byteOffset": 489384,
      "componentType": 5126,
      "count": 20391,
      "max": [0.25661322474479675, 0.74204862117767334, 0.34723177552223206],
      "min": [
        -0.25661331415176392, 0.0034210269805043936, -0.12838034331798553
      ],
      "type": "VEC3"
    },
    {
      "bufferView": 2,
      "byteOffset": 734076,
      "componentType": 5126,
      "count": 20391,
      "max": [0.9999995231628418, 1, 0.9999997615814209],
      "min": [-0.9999995231628418, -1, -1],
      "type": "VEC3"
    },
    {
      "bufferView": 1,
      "byteOffset": 163128,
      "componentType": 5126,
      "count": 20391,
      "max": [0.97803759574890137, 0.95591306686401367],
      "min": [0.00473004300147295, 0.15881983935832977],
      "type": "VEC2"
    },
    {
      "bufferView": 0,
      "byteOffset": 382464,
      "componentType": 5125,
      "count": 95616,
      "max": [20390],
      "min": [0],
      "type": "SCALAR"
    },
    {
      "bufferView": 2,
      "byteOffset": 978768,
      "componentType": 5126,
      "count": 3859,
      "max": [0.058880310505628586, 0.054759282618761063, 0.03942687064409256],
      "min": [
        -0.039426945149898529, 9.1927230272403904e-9, -0.039427030831575394
      ],
      "type": "VEC3"
    },
    {
      "bufferView": 2,
      "byteOffset": 1025076,
      "componentType": 5126,
      "count": 3859,
      "max": [0.99997210502624512, 1, 0.9999997615814209],
      "min": [-0.99997210502624512, -1, -0.9999997615814209],
      "type": "VEC3"
    },
    {
      "bufferView": 1,
      "byteOffset": 326256,
      "componentType": 5126,
      "count": 3859,
      "max": [0.99688047170639038, 0.53096461296081543],
      "min": [0.22885189950466156, 0.0026300570461899042],
      "type": "VEC2"
    },
    {
      "bufferView": 0,
      "byteOffset": 764928,
      "componentType": 5125,
      "count": 19200,
      "max": [3858],
      "min": [0],
      "type": "SCALAR"
    },
    {
      "bufferView": 2,
      "byteOffset": 1071384,
      "componentType": 5126,
      "count": 3859,
      "max": [0.058880310505628586, 0.054759282618761063, 0.03942687064409256],
      "min": [
        -0.039426945149898529, 9.1927230272403904e-9, -0.039427030831575394
      ],
      "type": "VEC3"
    },
    {
      "bufferView": 2,
      "byteOffset": 1117692,
      "componentType": 5126,
      "count": 3859,
      "max": [0.99997210502624512, 1, 0.9999997615814209],
      "min": [-0.99997210502624512, -1, -0.9999997615814209],
      "type": "VEC3"
    },
    {
      "bufferView": 1,
      "byteOffset": 357128,
      "componentType": 5126,
      "count": 3859,
      "max": [0.99688047170639038, 0.53096461296081543],
      "min": [0.22885189950466156, 0.0026300570461899042],
      "type": "VEC2"
    },
    {
      "bufferView": 0,
      "byteOffset": 841728,
      "componentType": 5125,
      "count": 19200,
      "max": [3858],
      "min": [0],
      "type": "SCALAR"
    },
    {
      "bufferView": 2,
      "byteOffset": 1164000,
      "componentType": 5126,
      "count": 2691,
      "max": [0.060030154883861542, 0.011754056438803673, 0.060030128806829453],
      "min": [
        -0.060030084103345871, 0.000349710404407233, -0.06003011018037796
      ],
      "type": "VEC3"
    },
    {
      "bufferView": 2,
      "byteOffset": 1196292,
      "componentType": 5126,
      "count": 2691,
      "max": [0.9659801721572876, 1, 0.9659801721572876],
      "min": [-0.9659801721572876, -1, -0.9659801721572876],
      "type": "VEC3"
    },
    {
      "bufferView": 1,
      "byteOffset": 388000,
      "componentType": 5126,
      "count": 2691,
      "max": [0.99641335010528564, 0.46171310544013977],
      "min": [0.24764631688594818, 0.19986711442470551],
      "type": "VEC2"
    },
    {
      "bufferView": 0,
      "byteOffset": 918528,
      "componentType": 5125,
      "count": 13248,
      "max": [2690],
      "min": [0],
      "type": "SCALAR"
    },
    {
      "bufferView": 2,
      "byteOffset": 1228584,
      "componentType": 5126,
      "count": 2691,
      "max": [0.060030154883861542, 0.011754056438803673, 0.060030128806829453],
      "min": [
        -0.060030084103345871, 0.000349710404407233, -0.06003011018037796
      ],
      "type": "VEC3"
    },
    {
      "bufferView": 2,
      "byteOffset": 1260876,
      "componentType": 5126,
      "count": 2691,
      "max": [0.9659801721572876, 1, 0.9659801721572876],
      "min": [-0.9659801721572876, -1, -0.9659801721572876],
      "type": "VEC3"
    },
    {
      "bufferView": 1,
      "byteOffset": 409528,
      "componentType": 5126,
      "count": 2691,
      "max": [0.99641335010528564, 0.46171310544013977],
      "min": [0.24764631688594818, 0.19986711442470551],
      "type": "VEC2"
    },
    {
      "bufferView": 0,
      "byteOffset": 971520,
      "componentType": 5125,
      "count": 13248,
      "max": [2690],
      "min": [0],
      "type": "SCALAR"
    },
    {
      "bufferView": 2,
      "byteOffset": 1293168,
      "componentType": 5126,
      "count": 25880,
      "max": [0.56299769878387451, 0.67858296632766724, 0.34723320603370667],
      "min": [
        -0.56299769878387451, 0.0034208479337394238, -0.15760304033756256
      ],
      "type": "VEC3"
    },
    {
      "bufferView": 2,
      "byteOffset": 1603728,
      "componentType": 5126,
      "count": 25880,
      "max": [0.9999995231628418, 1, 0.9999997615814209],
      "min": [-0.9999995231628418, -1, -0.9999997615814209],
      "type": "VEC3"
    },
    {
      "bufferView": 1,
      "byteOffset": 431056,
      "componentType": 5126,
      "count": 25880,
      "max": [0.99581027030944824, 0.97706353664398193],
      "min": [0.0026476483326405287, 0.0031098430044949055],
      "type": "VEC2"
    },
    {
      "bufferView": 0,
      "byteOffset": 1024512,
      "componentType": 5125,
      "count": 123456,
      "max": [25879],
      "min": [0],
      "type": "SCALAR"
    },
    {
      "bufferView": 2,
      "byteOffset": 1914288,
      "componentType": 5126,
      "count": 31490,
      "max": [0.29628512263298035, 0.38610026240348816, 0.29646191000938416],
      "min": [
        -0.29655760526657104, 0.0027499417774379253, -0.29637777805328369
      ],
      "type": "VEC3"
    },
    {
      "bufferView": 2,
      "byteOffset": 2292168,
      "componentType": 5126,
      "count": 31490,
      "max": [0.99999344348907471, 1, 1],
      "min": [-0.99999344348907471, -1, -1],
      "type": "VEC3"
    },
    {
      "bufferView": 1,
      "byteOffset": 638096,
      "componentType": 5126,
      "count": 31490,
      "max": [0.99595654010772705, 0.99725824594497681],
      "min": [0.12978328764438629, 0.34496921300888062],
      "type": "VEC2"
    },
    {
      "bufferView": 0,
      "byteOffset": 1518336,
      "componentType": 5125,
      "count": 72504,
      "max": [31489],
      "min": [0],
      "type": "SCALAR"
    },
    {
      "bufferView": 2,
      "byteOffset": 2670048,
      "componentType": 5126,
      "count": 5764,
      "max": [0.084139414131641388, 0.13765616714954376, 0.061046898365020752],
      "min": [
        -0.091482028365135193, 1.3860536718368621e-8, -0.061047136783599854
      ],
      "type": "VEC3"
    },
    {
      "bufferView": 2,
      "byteOffset": 2739216,
      "componentType": 5126,
      "count": 5764,
      "max": [0.99998211860656738, 1, 0.99998939037322998],
      "min": [-0.99998235702514648, -1, -0.99998939037322998],
      "type": "VEC3"
    },
    {
      "bufferView": 1,
      "byteOffset": 890016,
      "componentType": 5126,
      "count": 5764,
      "max": [0.99696606397628784, 0.15722249448299408],
      "min": [0.2123788446187973, 0.0026860465295612812],
      "type": "VEC2"
    },
    {
      "bufferView": 0,
      "byteOffset": 1808352,
      "componentType": 5125,
      "count": 28800,
      "max": [5763],
      "min": [0],
      "type": "SCALAR"
    },
    {
      "bufferView": 2,
      "byteOffset": 2808384,
      "componentType": 5126,
      "count": 5070,
      "max": [0.17407624423503876, 0.033300813287496567, 0.11284519731998444],
      "min": [
        -0.17407624423503876, -0.0051656239666044712, -0.11284510791301727
      ],
      "type": "VEC3"
    },
    {
      "bufferView": 2,
      "byteOffset": 2869224,
      "componentType": 5126,
      "count": 5070,
      "max": [0.99999833106994629, 1, 0.99985241889953613],
      "min": [-0.99999833106994629, -1, -0.99985241889953613],
      "type": "VEC3"
    },
    {
      "bufferView": 1,
      "byteOffset": 936128,
      "componentType": 5126,
      "count": 5070,
      "max": [0.91475808620452881, 0.97827887535095215],
      "min": [0.45236712694168091, 0.0030675001908093691],
      "type": "VEC2"
    },
    {
      "bufferView": 0,
      "byteOffset": 1923552,
      "componentType": 5125,
      "count": 23808,
      "max": [5069],
      "min": [0],
      "type": "SCALAR"
    },
    {
      "bufferView": 2,
      "byteOffset": 2930064,
      "componentType": 5126,
      "count": 2893,
      "max": [0.121598981320858, 0.40058892965316772, 0.12157800793647766],
      "min": [
        -0.1215982660651207, 0.00011855363845825195, -0.12157514691352844
      ],
      "type": "VEC3"
    },
    {
      "bufferView": 2,
      "byteOffset": 2964780,
      "componentType": 5126,
      "count": 2893,
      "max": [0.99997067451477051, 0.99872368574142456, 1],
      "min": [-0.99997067451477051, -0.99987173080444336, -1],
      "type": "VEC3"
    },
    {
      "bufferView": 1,
      "byteOffset": 976688,
      "componentType": 5126,
      "count": 2893,
      "max": [0.99586361646652222, 0.78610247373580933],
      "min": [0.13515913486480713, 0.10113215446472168],
      "type": "VEC2"
    },
    {
      "bufferView": 0,
      "byteOffset": 2018784,
      "componentType": 5125,
      "count": 15360,
      "max": [2892],
      "min": [0],
      "type": "SCALAR"
    },
    {
      "bufferView": 2,
      "byteOffset": 2999496,
      "componentType": 5126,
      "count": 5484,
      "max": [0.37411457300186157, 0.68340855836868286, 0.30855834484100342],
      "min": [-0.26569092273712158, 0.18738667666912079, -0.21899376809597015],
      "type": "VEC3"
    },
    {
      "bufferView": 2,
      "byteOffset": 3065304,
      "componentType": 5126,
      "count": 5484,
      "max": [0.99920547008514404, 0.99997997283935547, 0.99995529651641846],
      "min": [-0.99920547008514404, -0.9999842643737793, -0.99995481967926025],
      "type": "VEC3"
    },
    {
      "bufferView": 1,
      "byteOffset": 999832,
      "componentType": 5126,
      "count": 5484,
      "max": [0.99738860130310059, 1.0454347133636475],
      "min": [0, 0],
      "type": "VEC2"
    },
    {
      "bufferView": 0,
      "byteOffset": 2080224,
      "componentType": 5125,
      "count": 30528,
      "max": [5483],
      "min": [0],
      "type": "SCALAR"
    }
  ],
  "asset": {
    "extras": {
      "author": "Sololopenko (https://sketchfab.com/Sololopenko)",
      "license": "CC-BY-4.0 (http://creativecommons.org/licenses/by/4.0/)",
      "source": "https://sketchfab.com/3d-models/furniture-set-4eb801eccae644ee9ded7a13f8d49d8a",
      "title": "Furniture set"
    },
    "generator": "Sketchfab-10.29.0",
    "version": "2.0"
  },
  "bufferViews": [
    {
      "buffer": 0,
      "byteLength": 2202336,
      "byteOffset": 0,
      "name": "floatBufferViews",
      "target": 34963
    },
    {
      "buffer": 0,
      "byteLength": 1043704,
      "byteOffset": 2202336,
      "byteStride": 8,
      "name": "floatBufferViews",
      "target": 34962
    },
    {
      "buffer": 0,
      "byteLength": 3131112,
      "byteOffset": 3246040,
      "byteStride": 12,
      "name": "floatBufferViews",
      "target": 34962
    }
  ],
  "buffers": [
    {
      "byteLength": 6377152,
      "uri": "furniture.bin"
    }
  ],
  "images": [
    {
      "uri": "textures/furniture_baseColor.png"
    },
    {
      "uri": "textures/monstera_baseColor.png"
    }
  ],
  "materials": [
    {
      "doubleSided": true,
      "emissiveFactor": [0, 0, 0],
      "name": "furniture",
      "pbrMetallicRoughness": {
        "baseColorFactor": [1, 1, 1, 1],
        "baseColorTexture": {
          "index": 0,
          "texCoord": 0
        },
        "metallicFactor": 0,
        "roughnessFactor": 0.5
      }
    },
    {
      "alphaMode": "BLEND",
      "doubleSided": true,
      "emissiveFactor": [0, 0, 0],
      "name": "monstera",
      "pbrMetallicRoughness": {
        "baseColorFactor": [1, 1, 1, 1],
        "baseColorTexture": {
          "index": 1,
          "texCoord": 0
        },
        "metallicFactor": 0,
        "roughnessFactor": 0.44545499999999999
      }
    }
  ],
  "meshes": [
    {
      "primitives": [
        {
          "attributes": {
            "NORMAL": 1,
            "POSITION": 0,
            "TEXCOORD_0": 2
          },
          "indices": 3,
          "material": 0,
          "mode": 4
        }
      ]
    },
    {
      "primitives": [
        {
          "attributes": {
            "NORMAL": 5,
            "POSITION": 4,
            "TEXCOORD_0": 6
          },
          "indices": 7,
          "material": 0,
          "mode": 4
        }
      ]
    },
    {
      "primitives": [
        {
          "attributes": {
            "NORMAL": 9,
            "POSITION": 8,
            "TEXCOORD_0": 10
          },
          "indices": 11,
          "material": 0,
          "mode": 4
        }
      ]
    },
    {
      "primitives": [
        {
          "attributes": {
            "NORMAL": 13,
            "POSITION": 12,
            "TEXCOORD_0": 14
          },
          "indices": 15,
          "material": 0,
          "mode": 4
        }
      ]
    },
    {
      "primitives": [
        {
          "attributes": {
            "NORMAL": 17,
            "POSITION": 16,
            "TEXCOORD_0": 18
          },
          "indices": 19,
          "material": 0,
          "mode": 4
        }
      ]
    },
    {
      "primitives": [
        {
          "attributes": {
            "NORMAL": 21,
            "POSITION": 20,
            "TEXCOORD_0": 22
          },
          "indices": 23,
          "material": 0,
          "mode": 4
        }
      ]
    },
    {
      "primitives": [
        {
          "attributes": {
            "NORMAL": 25,
            "POSITION": 24,
            "TEXCOORD_0": 26
          },
          "indices": 27,
          "material": 0,
          "mode": 4
        }
      ]
    },
    {
      "primitives": [
        {
          "attributes": {
            "NORMAL": 29,
            "POSITION": 28,
            "TEXCOORD_0": 30
          },
          "indices": 31,
          "material": 0,
          "mode": 4
        }
      ]
    },
    {
      "primitives": [
        {
          "attributes": {
            "NORMAL": 33,
            "POSITION": 32,
            "TEXCOORD_0": 34
          },
          "indices": 35,
          "material": 0,
          "mode": 4
        }
      ]
    },
    {
      "primitives": [
        {
          "attributes": {
            "NORMAL": 37,
            "POSITION": 36,
            "TEXCOORD_0": 38
          },
          "indices": 39,
          "material": 0,
          "mode": 4
        }
      ]
    },
    {
      "primitives": [
        {
          "attributes": {
            "NORMAL": 41,
            "POSITION": 40,
            "TEXCOORD_0": 42
          },
          "indices": 43,
          "material": 0,
          "mode": 4
        }
      ]
    },
    {
      "primitives": [
        {
          "attributes": {
            "NORMAL": 45,
            "POSITION": 44,
            "TEXCOORD_0": 46
          },
          "indices": 47,
          "material": 1,
          "mode": 4
        }
      ]
    }
  ],
  "nodes": [
    {
      "children": [1],
      "name": "RootNode (gltf orientation matrix)",
      "rotation": [-0.70710678118654746, -0, -0, 0.70710678118654757]
    },
    {
      "children": [2],
      "matrix": [
        2.0653922557830811, 0, 0, 0, 0, 2.0653922557830811, 0, 0, 0, 0,
        2.0653922557830811, 0, 0, 0, 0, 1
      ],
      "name": "RootNode (model correction matrix)"
    },
    {
      "children": [3],
      "name": "root"
    },
    {
      "children": [4, 6, 8, 10, 12, 14, 16, 18, 20, 22, 24],
      "matrix": [
        1, 0, 0, 0, 0, 2.2204460492503131e-16, 1, 0, 0, -1,
        2.2204460492503131e-16, 0, 0, 0, 0, 1
      ],
      "name": "GLTF_SceneRootNode"
    },
    {
      "children": [5],
      "matrix": [
        -0.38509843557204293, 0, -0.74613194372518388, 0, 0,
        0.83965086936950684, 0, 0, 0.74613194372518388, 0, -0.38509843557204293,
        0, -0.68236845731735229, -0.0042053759098052979, 0.44282141327857971, 1
      ],
      "name": "chair_00_0"
    },
    {
      "mesh": 0,
      "name": ""
    },
    {
      "children": [7],
      "matrix": [
        0.78504767633077566, 0, 0.29784833091094914, 0, 0, 0.83965086936950684,
        0, 0, -0.29784833091094914, 0, 0.78504767633077566, 0,
        0.42719471454620361, -0.0012456923723220825, -0.89945530891418457, 1
      ],
      "name": "chair_01_1"
    },
    {
      "mesh": 1,
      "name": ""
    },
    {
      "children": [9],
      "matrix": [
        0.52362314596729165, 0, -0.85194999912396052, 0, 0, 1, 0, 0,
        0.85194999912396052, 0, 0.52362314596729165, 0, 0.20234423875808716,
        0.38648226857185364, -0.016350880265235901, 1
      ],
      "name": "cup_00_2"
    },
    {
      "mesh": 2,
      "name": ""
    },
    {
      "children": [11],
      "matrix": [
        -0.79742693121025399, 0, 0.60341551967164109, 0, 0, 1, 0, 0,
        -0.60341551967164109, 0, -0.79742693121025399, 0, 0.083349913358688354,
        0.3883756697177887, 0.10834595561027527, 1
      ],
      "name": "cup_01_3"
    },
    {
      "mesh": 3,
      "name": ""
    },
    {
      "children": [13],
      "matrix": [
        0.90011430711665674, 0, -0.43565380076834065, 0, 0, 1, 0, 0,
        0.43565380076834065, 0, 0.90011430711665674, 0, 0.20157580077648163,
        0.38436859846115112, -0.018558166921138763, 1
      ],
      "name": "saucer_00_5"
    },
    {
      "mesh": 4,
      "name": ""
    },
    {
      "children": [15],
      "matrix": [
        -0.090290477352934939, 0, -0.99591547316997708, 0, 0, 1, 0, 0,
        0.99591547316997708, 0, -0.090290477352934939, 0, 0.082464903593063354,
        0.38361281156539917, 0.10885147750377655, 1
      ],
      "name": "saucer_01_6"
    },
    {
      "mesh": 5,
      "name": ""
    },
    {
      "children": [17],
      "matrix": [
        0.73255193563892307, 0, -0.41034295914371766, 0, 0, 0.83965086936950684,
        0, 0, 0.41034295914371766, 0, 0.73255193563892307, 0,
        -0.52264171838760376, -0.0036412784829735756, -0.76123613119125366, 1
      ],
      "name": "sofa_00_7"
    },
    {
      "mesh": 6,
      "name": ""
    },
    {
      "children": [19],
      "matrix": [
        0.99956106285619695, 0, -0.02962569192086463, 0, 0, 1, 0, 0,
        0.02962569192086463, 0, 0.99956106285619695, 0, 0.22672823071479797,
        0.00070411222986876965, 0.15362453460693359, 1
      ],
      "name": "table_00_8"
    },
    {
      "mesh": 7,
      "name": ""
    },
    {
      "children": [21],
      "matrix": [
        -0.41627454863064473, 0, 0.90923896757802503, 0, 0, 1, 0, 0,
        -0.90923896757802503, 0, -0.41627454863064473, 0, 0.34497317671775818,
        0.38992440700531006, 0.24509637057781219, 1
      ],
      "name": "teapot_00_9"
    },
    {
      "mesh": 8,
      "name": ""
    },
    {
      "children": [23],
      "matrix": [
        0.85711521468019869, 0, -0.51512475068056751, 0, 0, 1, 0, 0,
        0.51512475068056751, 0, 0.85711521468019869, 0, 0.2727540135383606,
        0.39074563980102539, 0.24901725351810455, 1
      ],
      "name": "tray_00_10"
    },
    {
      "mesh": 9,
      "name": ""
    },
    {
      "children": [25, 26],
      "matrix": [
        0.81185077665356409, 0, -0.58386498135014453, 0, 0, 1, 0, 0,
        0.58386498135014453, 0, 0.81185077665356409, 0, -1.1218054294586182,
        0.0018625259399414062, -0.2210528701543808, 1
      ],
      "name": "vase_00_11"
    },
    {
      "mesh": 10,
      "name": ""
    },
    {
      "mesh": 11,
      "name": ""
    }
  ],
  "samplers": [
    {
      "magFilter": 9729,
      "minFilter": 9987,
      "wrapS": 10497,
      "wrapT": 10497
    },
    {
      "magFilter": 9729,
      "minFilter": 9987,
      "wrapS": 33071,
      "wrapT": 33071
    }
  ],
  "scene": 0,
  "scenes": [
    {
      "name": "OSG_Scene",
      "nodes": [0]
    }
  ],
  "textures": [
    {
      "sampler": 0,
      "source": 0
    },
    {
      "sampler": 1,
      "source": 1
    }
  ]
}
