{
  "accessors": [
    {
      "bufferView": 2,
      "componentType": 5126,
      "count": 65532,
      "max": [
        0.8502780199050903,
        1.8527699708938599,
        1.7769269943237305
      ],
      "min": [
        -0.7035880088806152,
        -2.466655969619751,
        0.036977000534534454
      ],
      "type": "VEC3"
    },
    {
      "bufferView": 2,
      "byteOffset": 786384,
      "componentType": 5126,
      "count": 65532,
      "max": [
        0.9999934434890747,
        0.9999803304672241,
        0.999994158744812
      ],
      "min": [
        -0.9999972581863403,
        -0.9999837875366211,
        -0.9999817609786987
      ],
      "type": "VEC3"
    },
    {
      "bufferView": 3,
      "componentType": 5126,
      "count": 65532,
      "max": [
        0.9998220801353455,
        0.9999876022338867,
        0.9999988079071045,
        1.0
      ],
      "min": [
        -0.9999857544898987,
        -0.9999698996543884,
        -0.9999943375587463,
        -1.0
      ],
      "type": "VEC4"
    },
    {
      "bufferView": 1,
      "componentType": 5126,
      "count": 65532,
      "max": [
        0.998507022857666,
        0.9998430013656616
      ],
      "min": [
        0.0001900000061141327,
        0.00017499999376013875
      ],
      "type": "VEC2"
    },
    {
      "bufferView": 0,
      "componentType": 5125,
      "count": 354612,
      "type": "SCALAR"
    },
    {
      "bufferView": 2,
      "byteOffset": 1572768,
      "componentType": 5126,
      "count": 11962,
      "max": [
        0.8499910235404968,
        1.6977870464324951,
        1.676758050918579
      ],
      "min": [
        -0.7035880088806152,
        -2.465985059738159,
        0.044596001505851746
      ],
      "type": "VEC3"
    },
    {
      "bufferView": 2,
      "byteOffset": 1716312,
      "componentType": 5126,
      "count": 11962,
      "max": [
        0.9999809265136719,
        0.9946681261062622,
        0.999961256980896
      ],
      "min": [
        -0.9999998807907104,
        -0.9998440146446228,
        -0.9993497729301453
      ],
      "type": "VEC3"
    },
    {
      "bufferView": 3,
      "byteOffset": 1048512,
      "componentType": 5126,
      "count": 11962,
      "max": [
        0.9995882511138916,
        0.999984622001648,
        0.9867922067642212,
        1.0
      ],
      "min": [
        -0.999506950378418,
        -0.9991552233695984,
        -0.9997899532318115,
        1.0
      ],
      "type": "VEC4"
    },
    {
      "bufferView": 1,
      "byteOffset": 524256,
      "componentType": 5126,
      "count": 11962,
      "max": [
        0.9872270226478577,
        0.9858149886131287
      ],
      "min": [
        0.0012570000253617764,
        0.0027699999045580626
      ],
      "type": "VEC2"
    },
    {
      "bufferView": 0,
      "byteOffset": 1418448,
      "componentType": 5125,
      "count": 48810,
      "type": "SCALAR"
    }
  ],
  "asset": {
    "extras": {
      "author": "Lassi Kaukonen (https://sketchfab.com/thesidekick)",
      "license": "CC-BY-4.0 (http://creativecommons.org/licenses/by/4.0/)",
      "source": "https://sketchfab.com/3d-models/adidas-sense-4-1258f26c2fad4e249daca9bebc83632a",
      "title": "Adidas Sense 4"
    },
    "generator": "Sketchfab-12.82.3",
    "version": "2.0"
  },
  "bufferViews": [
    {
      "buffer": 0,
      "byteLength": 1613688,
      "name": "floatBufferViews",
      "target": 34963
    },
    {
      "buffer": 0,
      "byteLength": 619952,
      "byteOffset": 1613688,
      "byteStride": 8,
      "name": "floatBufferViews",
      "target": 34962
    },
    {
      "buffer": 0,
      "byteLength": 1859856,
      "byteOffset": 2233640,
      "byteStride": 12,
      "name": "floatBufferViews",
      "target": 34962
    },
    {
      "buffer": 0,
      "byteLength": 1239904,
      "byteOffset": 4093496,
      "byteStride": 16,
      "name": "floatBufferViews",
      "target": 34962
    }
  ],
  "buffers": [
    {
      "byteLength": 5333400,
      "uri": "scene.bin"
    }
  ],
  "extensionsRequired": [
    "KHR_materials_pbrSpecularGlossiness"
  ],
  "extensionsUsed": [
    "KHR_materials_pbrSpecularGlossiness"
  ],
  "images": [
    {
      "uri": "textures/Adidas_sense4_diffuse.jpeg"
    },
    {
      "uri": "textures/Adidas_sense4_specularGlossiness.jpeg"
    },
    {
      "uri": "textures/Adidas_sense4_normal.png"
    },
    {
      "uri": "textures/Adidas_sense4_occlusion.png"
    }
  ],
  "materials": [
    {
      "doubleSided": true,
      "extensions": {
        "KHR_materials_pbrSpecularGlossiness": {
          "diffuseFactor": [
            1.0,
            1.0,
            1.0,
            1.0
          ],
          "diffuseTexture": {
            "index": 0
          },
          "glossinessFactor": 0.4678109495190842,
          "specularFactor": [
            1.0,
            1.0,
            1.0
          ],
          "specularGlossinessTexture": {
            "index": 1
          }
        }
      },
      "name": "Adidas_sense4",
      "normalTexture": {
        "index": 2
      },
      "occlusionTexture": {
        "index": 3
      }
    }
  ],
  "meshes": [
    {
      "name": "Object_0",
      "primitives": [
        {
          "attributes": {
            "NORMAL": 1,
            "POSITION": 0,
            "TANGENT": 2,
            "TEXCOORD_0": 3
          },
          "indices": 4,
          "material": 0,
          "mode": 4
        }
      ]
    },
    {
      "name": "Object_1",
      "primitives": [
        {
          "attributes": {
            "NORMAL": 6,
            "POSITION": 5,
            "TANGENT": 7,
            "TEXCOORD_0": 8
          },
          "indices": 9,
          "material": 0,
          "mode": 4
        }
      ]
    }
  ],
  "nodes": [
    {
      "children": [
        1
      ],
      "matrix": [
        1.0,
        0.0,
        0.0,
        0.0,
        0.0,
        2.220446049250313e-16,
        -1.0,
        0.0,
        0.0,
        1.0,
        2.220446049250313e-16,
        0.0,
        0.0,
        0.0,
        0.0,
        1.0
      ],
      "name": "Sketchfab_model"
    },
    {
      "children": [
        2,
        3
      ],
      "name": "Adidas_sense4_SF.obj.cleaner.materialmerger.gles"
    },
    {
      "mesh": 0,
      "name": "Object_2"
    },
    {
      "mesh": 1,
      "name": "Object_3"
    }
  ],
  "samplers": [
    {
      "magFilter": 9729,
      "minFilter": 9987,
      "wrapS": 10497,
      "wrapT": 10497
    }
  ],
  "scene": 0,
  "scenes": [
    {
      "name": "Sketchfab_Scene",
      "nodes": [
        0
      ]
    }
  ],
  "textures": [
    {
      "sampler": 0,
      "source": 0
    },
    {
      "sampler": 0,
      "source": 1
    },
    {
      "sampler": 0,
      "source": 2
    },
    {
      "sampler": 0,
      "source": 3
    }
  ]
}
